<svg width="512" height="512" viewBox="0 0 512 512" fill="none" xmlns="http://www.w3.org/2000/svg">
<path d="M329.742 356.682C329.742 356.682 363.049 382.14 411.309 363.004C454.761 345.772 501.671 360.64 501.671 360.64C501.671 360.64 453.752 317.665 408.569 313.15C363.386 308.638 329.742 356.682 329.742 356.682Z" fill="#64A100"/>
<path d="M331.222 356.437C336.671 360.112 367.987 379.051 410.922 362.027C446.381 347.967 484.508 355.231 497.426 358.409C485.538 348.58 445.792 317.922 408.462 314.195C367.615 310.165 336.002 350.071 331.222 356.437ZM375.68 371.122C347.349 371.122 329.347 357.7 329.107 357.511L328.305 356.902L328.882 356.081C329.223 355.596 363.48 307.52 408.671 312.112C453.673 316.599 501.893 359.426 502.374 359.855L506 363.113L501.352 361.638C500.888 361.494 454.27 347.094 411.7 363.982C398.494 369.219 386.354 371.122 375.68 371.122Z" fill="black"/>
<path d="M255.82 378.908C255.82 378.908 262.291 402.88 332.772 393.292C396.229 384.658 427.706 421.098 427.706 421.098C427.706 421.098 405.769 356.254 347.156 335.396C288.543 314.541 255.82 378.908 255.82 378.908Z" fill="#64A100"/>
<path d="M351.652 390.546C390.047 390.546 414.239 407.197 423.94 415.531C416.844 399.052 393.473 353.4 346.675 336.756C292.802 317.56 260.801 372.776 257.403 378.998C258.902 382.232 270.257 400.338 332.58 391.864C339.283 390.95 345.646 390.546 351.652 390.546ZM431.416 427.575L426.62 422.042C426.307 421.685 394.843 386.274 332.969 394.717C262.047 404.344 254.707 380.309 254.434 379.279L254.286 378.75L254.538 378.253C254.875 377.6 288.519 313.021 347.637 334.044C406.23 354.89 428.844 419.982 429.068 420.64L431.416 427.575Z" fill="black"/>
<path d="M182.26 356.682C182.26 356.682 148.953 382.14 100.693 363.004C57.2411 345.772 10.3312 360.64 10.3312 360.64C10.3312 360.64 58.2507 317.665 103.434 313.15C148.617 308.638 182.26 356.682 182.26 356.682Z" fill="#64A100"/>
<path d="M54.0597 353.683C68.5758 353.683 85.0992 355.69 101.082 362.029C144.021 379.057 175.329 360.11 180.778 356.435C176.002 350.069 144.265 310.139 103.542 314.193C66.1959 317.928 26.4579 348.582 14.5782 358.411C21.67 356.664 36.3704 353.683 54.0597 353.683ZM136.324 371.124C125.651 371.124 113.514 369.217 100.308 363.984C57.6978 347.076 11.1125 361.492 10.6477 361.64L6 363.114L9.63002 359.857C10.1148 359.424 58.3268 316.597 103.329 312.11C148.581 307.546 182.777 355.594 183.118 356.083L183.695 356.9L182.897 357.513C182.649 357.702 164.647 371.124 136.324 371.124Z" fill="black"/>
<path d="M256.182 378.908C256.182 378.908 249.711 402.88 179.23 393.292C115.773 384.658 84.3005 421.098 84.3005 421.098C84.3005 421.098 106.233 356.254 164.846 335.396C223.459 314.541 256.182 378.908 256.182 378.908Z" fill="#64A100"/>
<path d="M187.591 332.732C180.651 332.732 173.227 333.946 165.33 336.755C118.536 353.402 95.1616 399.054 88.0618 415.533C99.2764 405.897 129.883 385.103 179.425 391.862C242.205 400.396 253.176 382.246 254.61 379.017C251.737 373.76 227.974 332.732 187.591 332.732ZM80.5814 427.609L82.9373 420.642C83.1576 419.981 105.771 354.893 164.364 334.046C223.49 313.019 257.134 377.598 257.467 378.251L257.715 378.748L257.571 379.281C257.295 380.311 249.946 404.347 179.037 394.715C117.05 386.281 85.7019 421.683 85.3853 422.04L80.5814 427.609Z" fill="black"/>
<path d="M247.595 368.05C262.548 351.811 277.649 335.368 287.978 316.321C298.303 297.273 303.544 275.06 297.646 254.474C292.69 237.177 280.149 221.499 280.173 203.61C280.177 200.857 280.502 198.056 281.724 195.544C284.28 190.283 290.258 187.21 296.096 185.123C306.449 181.417 318.184 179.69 328.642 183.148C338.394 186.373 346.018 193.849 350.582 202.416C355.142 210.982 356.913 220.59 357.59 230.109C361.484 284.928 327.492 340.489 274.552 365.835C268.101 368.92 261.374 371.604 254.302 373.151C251.301 373.808 247.956 374.213 245.291 372.786C242.623 371.356 241.545 367.373 244.029 365.694C246.489 368.784 247.739 372.666 247.507 376.488" fill="#72C5DD"/>
<path d="M255.86 364.596C267.884 364.756 278.425 356.595 287.376 348.221C298.47 337.835 308.747 326.501 318.071 314.364C326.132 303.867 333.537 292.656 338.353 280.18C349.166 252.141 345.424 218.505 328.733 193.8C324.329 187.282 317.145 177.902 313.62 170.83C312.63 168.847 311.179 155.677 312.197 151.943C315.246 140.72 321.721 131.156 332.403 127.695C341.297 124.814 353.149 135.299 360.457 141.325C377.321 155.228 387.146 176.376 394.257 197.531C398.548 210.284 402.086 223.51 402.271 237.024C402.511 255.186 396.637 272.98 388.139 288.83C379.637 304.684 368.567 318.844 357.556 332.915C353.958 337.511 350.336 342.135 346.013 345.993C338.721 352.508 329.73 356.579 320.679 359.92C301.928 366.84 281.422 371.01 262.174 365.79C259.946 365.185 256.252 366.182 257.362 368.286" fill="#1F8AB2"/>
<path d="M258.634 369.469C305.632 358.298 338.919 326.702 361.2 282.116C369.149 266.209 374.766 248.736 375.183 230.803C376.056 193.385 363.239 157.978 344.857 125.832C341.03 119.141 337.164 111.841 337.761 104.076C338.53 94.0758 347.176 85.9022 356.676 84.3316C366.176 82.761 375.972 86.9199 383.128 93.627C390.28 100.33 399.515 116.834 403.205 126.097C407.873 137.828 410.926 150.181 413.715 162.545C423.126 204.307 424.941 242.262 408.053 281.379C403.482 291.964 369.926 338.041 348.415 350.429C320.753 366.36 287.702 370.33 256.145 368.603" fill="#00497C"/>
<path d="M263.502 368.05C248.669 351.811 233.692 335.368 223.451 316.321C213.206 297.273 208.013 275.06 213.859 254.474C218.775 237.177 231.216 221.499 231.192 203.61C231.188 200.857 230.863 198.056 229.653 195.544C227.117 190.283 221.187 187.21 215.398 185.123C205.129 181.417 193.489 179.69 183.12 183.148C173.448 186.373 165.884 193.849 161.36 202.416C156.837 210.982 155.082 220.59 154.408 230.109C150.546 284.928 184.262 340.489 236.765 365.835C243.164 368.92 249.835 371.604 256.85 373.151C259.823 373.808 263.145 374.213 265.789 372.786C268.43 371.356 269.503 367.373 267.035 365.694C264.595 368.784 263.357 372.666 263.59 376.488" fill="#72C5DD"/>
<path d="M256.142 364.596C244.118 364.756 233.576 356.595 224.626 348.221C213.531 337.835 203.254 326.501 193.931 314.364C185.869 303.867 178.465 292.656 173.649 280.18C162.831 252.141 166.577 218.505 183.269 193.8C187.672 187.282 194.856 177.902 198.382 170.83C199.372 168.847 200.822 155.677 199.804 151.943C196.755 140.72 190.281 131.156 179.599 127.695C170.704 124.814 158.852 135.299 151.544 141.325C134.68 155.228 124.856 176.376 117.744 197.531C113.453 210.284 109.915 223.51 109.731 237.024C109.487 255.186 115.364 272.98 123.862 288.83C132.364 304.684 143.435 318.844 154.445 332.915C158.043 337.511 161.665 342.135 165.988 345.993C173.28 352.508 182.271 356.579 191.326 359.92C210.073 366.84 230.579 371.01 249.827 365.79C252.055 365.185 255.749 366.182 254.639 368.286" fill="#1F8AB2"/>
<path d="M253.368 369.469C206.37 358.298 173.648 324.767 151.371 280.181C143.422 264.274 137.8 246.797 137.384 228.867C136.51 191.449 148.762 157.978 167.145 125.832C170.971 119.141 174.838 111.841 174.241 104.076C173.471 94.0758 164.825 85.9022 155.325 84.3316C145.826 82.761 136.029 86.9199 128.873 93.627C121.722 100.33 112.486 116.834 108.796 126.097C104.128 137.828 101.075 150.181 98.2866 162.545C88.875 204.307 87.06 242.262 103.952 281.379C108.52 291.964 142.075 338.041 163.587 350.429C191.249 366.36 224.3 370.33 255.86 368.603" fill="#00497C"/>
<path d="M266.289 143.63C266.289 149.456 261.57 154.176 255.744 154.176C249.918 154.176 245.198 149.456 245.198 143.63C245.198 137.804 249.918 133.085 255.744 133.085C261.57 133.085 266.289 137.804 266.289 143.63Z" fill="#FAD247"/>
<path d="M255.745 134.124C250.504 134.124 246.241 138.387 246.241 143.628C246.241 148.872 250.504 153.135 255.745 153.135C260.982 153.135 265.249 148.872 265.249 143.628C265.249 138.387 260.982 134.124 255.745 134.124ZM255.745 155.219C249.355 155.219 244.154 150.018 244.154 143.628C244.154 137.237 249.355 132.04 255.745 132.04C262.132 132.04 267.328 137.237 267.328 143.628C267.328 150.018 262.132 155.219 255.745 155.219Z" fill="#090909"/>
<path d="M263.786 112.042C263.786 116.482 260.184 120.084 255.745 120.084C251.301 120.084 247.703 116.482 247.703 112.042C247.703 107.603 251.301 104.001 255.745 104.001C260.184 104.001 263.786 107.603 263.786 112.042Z" fill="#1F8AB2"/>
<path d="M236.995 129.061C236.995 133.504 233.393 137.102 228.954 137.102C224.511 137.102 220.913 133.504 220.913 129.061C220.913 124.618 224.511 121.02 228.954 121.02C233.393 121.02 236.995 124.618 236.995 129.061Z" fill="#1F8AB2"/>
<path d="M291.352 129.061C291.352 133.504 287.75 137.102 283.31 137.102C278.867 137.102 275.269 133.504 275.269 129.061C275.269 124.618 278.867 121.02 283.31 121.02C287.75 121.02 291.352 124.618 291.352 129.061Z" fill="#1F8AB2"/>
<path d="M263.786 174.518C263.786 170.078 260.184 166.476 255.745 166.476C251.301 166.476 247.703 170.078 247.703 174.518C247.703 178.961 251.301 182.559 255.745 182.559C260.184 182.559 263.786 178.961 263.786 174.518Z" fill="#1F8AB2"/>
<path d="M236.995 157.499C236.995 153.059 233.393 149.457 228.954 149.457C224.511 149.457 220.913 153.059 220.913 157.499C220.913 161.942 224.511 165.54 228.954 165.54C233.393 165.54 236.995 161.942 236.995 157.499Z" fill="#1F8AB2"/>
<path d="M291.352 157.499C291.352 153.059 287.75 149.457 283.31 149.457C278.867 149.457 275.269 153.059 275.269 157.499C275.269 161.942 278.867 165.54 283.31 165.54C287.75 165.54 291.352 161.942 291.352 157.499Z" fill="#1F8AB2"/>
<path d="M283.31 274.033C283.31 299.548 268.838 380.662 256.133 380.662C243.424 380.662 228.952 299.548 228.952 274.033C228.952 248.523 243.163 210.155 255.872 210.155C268.582 210.155 283.31 248.523 283.31 274.033Z" fill="#FAD247"/>
<path d="M255.874 211.197C244.226 211.197 229.995 248.219 229.995 274.034C229.995 301.563 245.112 379.621 256.134 379.621C267.153 379.621 282.266 301.563 282.266 274.034C282.266 248.667 267.505 211.197 255.874 211.197ZM256.134 381.704C241.919 381.704 227.911 297.448 227.911 274.034C227.911 248.792 241.762 209.114 255.874 209.114C269.981 209.114 284.349 249.26 284.349 274.034C284.349 297.448 270.346 381.704 256.134 381.704" fill="#090909"/>
<path d="M283.288 374.131C283.288 389.272 271.012 401.548 255.871 401.548C240.729 401.548 228.453 389.272 228.453 374.131C228.453 358.99 240.729 346.713 255.871 346.713C271.012 346.713 283.288 358.99 283.288 374.131Z" fill="#EE1919"/>
<path d="M255.873 348.05C241.493 348.05 229.794 359.749 229.794 374.129C229.794 388.513 241.493 400.213 255.873 400.213C270.253 400.213 281.952 388.513 281.952 374.129C281.952 359.749 270.253 348.05 255.873 348.05ZM255.873 402.885C240.019 402.885 227.117 389.984 227.117 374.129C227.117 358.275 240.019 345.378 255.873 345.378C271.727 345.378 284.625 358.275 284.625 374.129C284.625 389.984 271.727 402.885 255.873 402.885Z" fill="#090909"/>
</svg>
